<svg id="svg" version="1.1" xmlns="http://www.w3.org/2000/svg" xmlns:xlink="http://www.w3.org/1999/xlink" width="400" height="400" viewBox="0, 0, 400,400"><g id="svgg"><path id="path0" d="M174.600 14.668 C 169.266 14.833,168.800 15.058,168.800 17.476 C 168.800 19.009,169.277 18.898,162.468 18.957 C 157.048 19.004,156.400 19.290,156.400 21.629 C 156.400 22.701,156.388 22.706,152.594 22.990 C 148.442 23.301,148.000 23.583,148.000 25.919 C 148.000 27.070,147.955 27.094,145.461 27.294 C 142.108 27.563,140.734 28.259,140.312 29.900 C 140.031 30.992,139.791 31.200,138.815 31.200 C 136.360 31.200,135.600 31.807,135.600 33.769 L 135.600 35.558 133.500 35.679 L 131.400 35.800 131.280 37.863 L 131.161 39.926 129.280 39.863 L 127.400 39.800 127.280 41.651 L 127.160 43.502 125.220 43.760 C 123.120 44.038,122.800 44.415,122.800 46.611 C 122.800 47.932,122.766 47.958,120.900 48.078 L 119.000 48.200 119.090 50.029 L 119.180 51.857 117.090 52.229 L 115.000 52.600 114.877 54.521 C 114.810 55.578,114.540 56.508,114.277 56.588 C 114.015 56.668,113.328 56.836,112.751 56.962 C 111.336 57.269,110.595 59.158,110.658 62.300 L 110.708 64.800 109.034 64.800 C 106.631 64.800,106.400 65.210,106.400 69.480 L 106.400 73.200 104.849 73.200 C 102.426 73.200,102.225 73.714,102.212 79.947 L 102.200 85.400 100.502 85.523 C 97.856 85.714,97.969 84.250,98.090 116.825 C 98.213 150.009,97.984 147.600,101.018 147.600 L 102.284 147.600 102.242 153.380 C 102.195 159.812,102.245 159.948,104.752 160.284 L 106.400 160.505 106.419 164.553 C 106.442 169.430,107.060 171.045,109.305 172.103 L 110.805 172.809 110.581 175.504 C 110.254 179.453,110.666 180.515,112.703 180.973 C 114.513 181.380,114.601 181.630,114.903 187.200 L 115.000 189.000 116.865 189.360 C 118.981 189.770,119.290 190.404,118.930 193.600 C 118.644 196.139,119.285 197.598,120.690 197.606 C 122.401 197.616,122.660 197.994,122.952 200.904 C 123.354 204.916,123.685 205.540,125.568 205.841 L 127.162 206.096 127.281 208.148 L 127.400 210.200 129.300 210.322 C 130.390 210.392,131.228 210.648,131.266 210.922 C 131.302 211.185,131.347 212.869,131.366 214.665 C 131.406 218.451,131.393 218.430,133.780 218.699 L 135.600 218.904 135.600 220.592 C 135.600 223.892,137.045 226.400,138.947 226.400 C 139.720 226.400,139.791 226.581,139.662 228.210 C 139.482 230.468,140.054 231.200,141.997 231.200 L 143.497 231.200 143.784 234.493 C 144.128 238.436,144.472 239.198,145.914 239.206 C 147.550 239.215,147.933 239.641,148.072 241.607 L 148.200 243.400 150.301 243.521 L 152.403 243.642 152.146 245.245 C 152.006 246.126,152.072 247.242,152.295 247.724 C 152.518 248.206,152.891 249.077,153.123 249.660 C 153.397 250.346,154.050 250.887,154.973 251.191 C 156.280 251.622,156.400 251.792,156.400 253.198 C 156.400 255.587,156.689 255.958,158.762 256.233 L 160.645 256.483 160.623 258.341 L 160.600 260.200 162.451 260.320 C 164.493 260.452,164.785 261.036,164.796 265.011 C 164.802 267.302,165.689 268.400,167.533 268.400 L 169.021 268.400 168.868 270.008 C 168.671 272.071,169.293 272.800,171.249 272.800 C 172.787 272.800,172.800 272.813,172.800 274.371 C 172.800 276.378,173.622 277.200,175.629 277.200 L 177.200 277.200 177.200 278.887 C 177.200 281.638,178.273 283.902,179.848 284.472 C 181.193 284.958,181.314 285.210,181.732 288.397 C 181.781 288.772,182.509 289.122,183.685 289.337 L 185.559 289.679 185.680 291.540 L 185.800 293.400 187.859 293.519 L 189.919 293.639 189.698 295.280 C 189.439 297.213,190.174 298.000,192.239 298.000 C 193.480 298.000,193.535 298.071,193.801 300.010 L 194.078 302.020 200.139 301.910 L 206.200 301.800 206.228 300.000 C 206.255 298.309,206.327 298.193,207.428 298.090 C 210.299 297.822,210.400 297.737,210.400 295.614 L 210.400 293.644 212.300 293.522 L 214.200 293.400 214.319 291.563 L 214.439 289.727 216.318 289.363 L 218.197 289.000 218.517 286.974 C 218.805 285.156,218.975 284.898,220.167 284.466 C 221.726 283.903,222.800 281.626,222.800 278.887 L 222.800 277.200 224.520 277.200 C 226.681 277.200,227.200 276.681,227.200 274.520 L 227.200 272.800 228.720 272.800 C 230.678 272.800,231.200 272.236,231.200 270.120 C 231.200 268.428,231.222 268.400,232.571 268.400 C 234.320 268.400,235.181 267.531,235.274 265.671 C 235.314 264.862,235.387 263.840,235.434 263.400 C 235.482 262.960,235.539 262.115,235.561 261.522 C 235.597 260.526,235.745 260.435,237.500 260.322 L 239.400 260.200 239.522 258.300 C 239.631 256.600,239.744 256.400,240.596 256.400 C 242.918 256.400,243.600 255.766,243.600 253.610 C 243.600 252.119,243.750 251.600,244.181 251.600 C 246.374 251.600,248.000 248.885,248.000 245.225 L 248.000 243.600 250.000 243.600 L 252.000 243.600 252.000 241.643 C 252.000 239.570,252.336 239.200,254.219 239.200 C 255.534 239.200,255.982 238.152,256.272 234.403 L 256.519 231.200 258.010 231.200 C 259.849 231.200,260.309 230.680,260.472 228.415 C 260.589 226.798,260.710 226.618,261.891 226.314 C 263.543 225.889,263.996 224.998,264.279 221.626 L 264.508 218.892 266.274 218.693 C 268.556 218.436,268.549 218.446,268.735 215.150 C 268.907 212.098,269.830 210.593,271.689 210.329 C 272.486 210.216,272.615 209.938,272.721 208.100 C 272.836 206.104,272.896 206.000,273.944 206.000 C 276.165 206.000,277.137 204.120,277.183 199.735 C 277.200 198.108,277.236 198.064,278.805 197.799 C 280.872 197.450,281.200 196.778,281.200 192.893 L 281.200 189.734 283.085 189.367 C 285.296 188.936,285.499 188.511,285.560 184.177 L 285.600 181.354 287.287 180.977 C 289.290 180.529,289.502 180.025,289.560 175.550 C 289.600 172.503,289.601 172.500,290.782 172.264 C 292.832 171.854,293.382 170.440,293.541 165.165 L 293.681 160.494 295.289 160.279 C 297.712 159.954,297.786 159.761,297.938 153.381 L 298.075 147.600 299.161 147.600 C 301.987 147.600,301.788 149.850,301.910 116.671 C 302.032 83.626,302.190 85.600,299.423 85.600 L 298.103 85.600 297.925 80.030 C 297.723 73.712,297.515 73.200,295.151 73.200 L 293.600 73.200 293.600 69.480 C 293.600 65.259,293.357 64.800,291.120 64.800 L 289.600 64.800 289.578 62.900 C 289.544 59.881,288.447 57.476,286.894 57.017 C 285.845 56.707,285.600 56.428,285.600 55.543 C 285.600 53.295,284.975 52.475,283.041 52.185 L 281.240 51.915 281.120 50.058 L 281.000 48.200 279.121 48.079 L 277.242 47.958 277.121 46.079 L 277.000 44.200 274.920 43.847 L 272.840 43.494 272.720 41.647 L 272.600 39.800 270.721 39.895 L 268.841 39.990 268.721 37.895 L 268.600 35.800 266.500 35.679 L 264.400 35.558 264.400 33.769 C 264.400 31.805,263.641 31.200,261.174 31.200 C 260.214 31.200,260.000 31.031,260.000 30.276 C 260.000 28.237,257.991 27.261,253.700 27.217 C 252.073 27.201,252.000 27.147,252.000 25.974 C 252.000 23.578,251.576 23.303,247.406 22.990 L 243.600 22.705 243.600 21.401 C 243.600 19.297,242.869 19.006,237.438 18.948 C 230.681 18.876,231.200 18.998,231.200 17.476 C 231.200 14.452,233.112 14.661,204.752 14.587 C 190.808 14.550,177.240 14.587,174.600 14.668 M289.412 67.580 C 289.283 67.789,289.543 68.155,289.989 68.394 C 290.435 68.633,290.786 69.047,290.768 69.314 C 290.745 69.678,290.686 69.674,290.534 69.298 C 290.423 69.021,290.176 68.891,289.986 69.009 C 289.568 69.267,288.722 67.811,289.081 67.453 C 289.464 67.069,289.678 67.151,289.412 67.580 M210.400 87.120 C 210.400 89.256,210.925 89.600,214.184 89.600 C 216.612 89.600,217.080 89.717,217.528 90.433 C 217.823 90.906,218.298 91.171,218.624 91.046 C 219.062 90.878,219.176 91.133,219.100 92.113 C 219.001 93.381,219.028 93.402,220.900 93.522 C 222.743 93.640,222.800 93.682,222.805 94.922 C 222.815 97.067,223.219 97.999,224.147 98.013 C 226.123 98.042,227.200 99.718,227.200 102.767 C 227.200 105.862,227.602 106.400,229.916 106.400 C 231.067 106.400,231.088 106.441,231.339 109.100 C 231.669 112.590,231.671 120.242,231.343 124.120 L 231.086 127.161 229.243 127.280 L 227.400 127.400 227.200 130.400 C 226.978 133.732,225.881 135.600,224.146 135.600 C 223.176 135.600,222.490 137.570,222.906 139.162 C 223.081 139.831,222.876 139.908,221.051 139.857 L 219.000 139.800 219.105 141.127 C 219.166 141.890,219.048 142.354,218.829 142.218 C 218.619 142.088,218.122 142.326,217.724 142.746 C 217.202 143.297,216.162 143.592,214.000 143.803 C 210.683 144.127,210.415 144.328,210.406 146.500 L 210.400 148.000 200.000 148.000 L 189.600 148.000 189.594 146.500 C 189.585 144.328,189.318 144.127,186.000 143.799 C 182.725 143.475,181.403 142.658,181.140 140.795 C 181.015 139.903,180.813 139.800,179.200 139.800 L 177.400 139.800 177.200 137.800 C 177.024 136.035,176.882 135.784,176.000 135.664 C 173.924 135.381,172.850 133.648,172.719 130.368 L 172.600 127.400 170.700 127.278 L 168.800 127.156 168.800 116.778 L 168.800 106.400 170.026 106.400 C 172.546 106.400,172.800 105.977,172.800 101.786 L 172.800 98.000 174.520 98.000 C 176.677 98.000,177.200 97.481,177.200 95.342 L 177.200 93.644 179.100 93.522 L 181.000 93.400 181.122 91.500 L 181.244 89.600 184.942 89.600 C 189.139 89.600,189.600 89.355,189.600 87.120 L 189.600 85.600 200.000 85.600 L 210.400 85.600 210.400 87.120 M135.572 215.316 C 135.587 215.489,135.353 215.400,135.050 215.118 C 134.748 214.835,134.599 214.346,134.720 214.031 C 134.928 213.489,135.484 214.326,135.572 215.316 M74.899 248.282 C 73.367 248.577,73.030 249.834,73.014 255.300 L 73.000 260.400 71.674 260.400 C 69.019 260.400,68.804 260.765,68.908 265.110 L 69.002 269.000 67.401 269.097 C 65.126 269.234,64.801 269.894,64.796 274.376 C 64.789 280.509,64.621 281.065,62.698 281.323 C 60.545 281.612,60.316 282.076,60.580 285.620 C 60.837 289.061,60.475 289.879,58.609 290.075 C 56.794 290.266,56.413 291.472,56.406 297.048 L 56.400 301.897 54.423 302.159 L 52.446 302.421 52.174 304.234 C 52.024 305.232,52.023 307.117,52.171 308.424 L 52.440 310.800 50.869 310.800 C 48.452 310.800,48.220 311.348,48.062 317.429 L 47.923 322.736 46.015 322.998 L 44.108 323.260 43.854 325.689 C 43.714 327.025,43.600 328.901,43.600 329.859 C 43.600 331.570,43.577 331.600,42.249 331.600 C 40.059 331.600,39.823 332.241,39.811 338.228 C 39.799 344.143,39.880 343.982,36.900 343.995 L 35.600 344.000 35.600 348.200 L 35.600 352.400 34.229 352.400 C 31.614 352.400,31.238 353.858,31.345 363.600 L 31.400 368.600 200.000 368.600 L 368.600 368.600 368.578 361.051 C 368.553 352.627,368.478 352.400,365.724 352.400 L 364.400 352.400 364.400 348.200 L 364.400 344.000 362.900 343.994 C 360.574 343.984,360.522 343.865,360.319 338.121 C 360.111 332.245,359.857 331.600,357.751 331.600 C 356.271 331.600,356.228 331.465,356.393 327.294 C 356.528 323.903,356.189 323.301,353.976 322.997 L 352.000 322.725 351.994 317.862 C 351.987 312.041,351.639 311.055,349.528 310.878 L 348.074 310.756 347.937 306.811 C 347.780 302.280,347.829 302.373,345.420 302.101 L 343.600 301.896 343.600 296.974 C 343.600 291.311,343.270 290.000,341.843 290.000 C 339.730 290.000,339.600 289.767,339.600 285.986 C 339.600 281.951,339.188 281.200,336.971 281.200 C 335.605 281.200,335.600 281.194,335.582 279.300 C 335.497 270.547,335.195 269.429,332.815 269.049 L 331.200 268.791 331.200 265.075 C 331.200 260.880,330.951 260.400,328.780 260.400 L 327.320 260.400 327.091 254.946 C 326.773 247.349,330.178 248.221,300.286 248.085 C 270.912 247.952,273.382 247.724,273.086 250.593 C 272.893 252.457,272.636 253.008,271.429 254.147 C 270.643 254.888,270.000 255.698,270.000 255.947 C 270.000 256.196,269.741 256.400,269.423 256.400 C 268.977 256.400,268.876 256.885,268.975 258.550 C 269.090 260.483,269.028 260.680,268.356 260.504 C 266.089 259.912,264.800 260.732,264.800 262.767 L 264.800 264.698 263.213 264.952 C 261.179 265.277,260.721 266.136,260.653 269.756 C 260.612 271.945,260.464 272.607,260.000 272.668 C 256.279 273.156,256.400 273.070,256.400 275.218 L 256.400 277.200 254.900 277.206 C 252.445 277.216,252.211 277.562,252.211 281.167 C 252.211 285.791,250.225 285.383,273.369 285.511 L 293.499 285.621 293.745 287.111 C 293.880 287.930,293.993 289.365,293.996 290.300 C 294.001 292.352,295.056 293.600,296.786 293.600 L 297.972 293.600 298.086 297.700 L 298.200 301.800 300.200 302.000 L 302.200 302.200 302.216 307.549 C 302.235 313.493,302.634 314.400,305.230 314.400 L 306.372 314.400 306.486 318.500 L 306.600 322.600 308.600 322.800 L 310.600 323.000 310.600 327.300 L 310.600 331.600 200.000 331.601 L 89.400 331.602 89.525 327.222 L 89.649 322.842 91.525 322.721 L 93.400 322.600 93.513 318.551 L 93.627 314.502 95.246 314.284 C 97.618 313.966,97.933 313.003,97.976 305.922 L 98.000 302.044 99.900 301.922 L 101.800 301.800 101.914 297.700 L 102.028 293.600 103.214 293.600 C 105.355 293.600,107.065 289.655,106.335 286.400 C 106.217 285.875,108.729 285.775,126.480 285.600 C 149.795 285.370,147.800 285.785,147.800 281.164 C 147.800 277.568,147.560 277.216,145.100 277.206 L 143.600 277.200 143.600 275.247 C 143.600 273.148,143.216 272.818,140.759 272.805 C 139.752 272.800,139.709 272.699,139.462 269.780 C 139.148 266.068,138.764 265.304,137.043 264.982 C 135.794 264.747,135.681 264.599,135.495 262.945 C 135.247 260.749,135.252 260.753,133.020 260.501 L 131.200 260.296 131.200 258.381 C 131.200 257.328,131.065 256.407,130.900 256.333 C 130.735 256.260,130.323 255.660,129.985 255.000 C 129.647 254.340,128.882 253.565,128.285 253.278 C 127.422 252.863,127.200 252.480,127.200 251.404 C 127.200 250.661,127.024 249.590,126.810 249.026 L 126.420 248.000 101.110 248.054 C 87.189 248.084,75.395 248.187,74.899 248.282 M127.406 256.410 C 127.545 256.635,127.421 256.770,127.130 256.710 C 126.838 256.649,126.639 256.808,126.688 257.063 C 126.786 257.580,125.795 257.545,125.312 257.014 C 125.140 256.826,125.226 256.802,125.503 256.961 C 125.797 257.130,126.105 256.991,126.246 256.625 C 126.521 255.908,127.037 255.812,127.406 256.410 M103.098 286.433 C 102.595 286.726,102.453 287.168,102.599 287.992 C 102.724 288.702,102.579 289.364,102.220 289.723 C 101.900 290.043,101.765 290.445,101.919 290.617 C 102.074 290.788,101.966 290.793,101.681 290.629 C 101.291 290.403,101.273 290.193,101.612 289.786 C 101.860 289.487,102.006 288.808,101.936 288.277 C 101.802 287.256,102.591 285.992,103.349 286.012 C 103.597 286.019,103.484 286.208,103.098 286.433 M93.829 310.629 C 93.681 311.215,93.471 311.604,93.361 311.494 C 93.251 311.384,93.281 310.815,93.429 310.229 C 93.576 309.642,93.786 309.253,93.896 309.363 C 94.006 309.473,93.976 310.042,93.829 310.629 M85.483 331.500 C 85.625 331.885,85.935 332.332,86.171 332.494 C 86.457 332.690,86.429 332.790,86.087 332.794 C 85.806 332.797,85.459 332.485,85.317 332.100 C 85.175 331.715,84.865 331.268,84.629 331.106 C 84.343 330.910,84.371 330.810,84.713 330.806 C 84.994 330.803,85.341 331.115,85.483 331.500 M39.179 347.425 C 38.722 347.975,38.801 348.017,39.830 347.769 C 40.474 347.614,40.860 347.638,40.688 347.822 C 40.300 348.239,39.159 348.422,38.703 348.140 C 38.383 347.942,39.060 346.800,39.498 346.800 C 39.608 346.800,39.464 347.081,39.179 347.425 M39.734 350.100 C 39.635 350.265,39.373 350.400,39.153 350.400 C 38.933 350.400,38.864 350.220,39.000 350.000 C 39.136 349.780,39.046 349.600,38.800 349.600 C 38.554 349.600,38.463 349.422,38.598 349.204 C 38.752 348.955,39.041 348.992,39.379 349.304 C 39.674 349.577,39.834 349.935,39.734 350.100 " stroke="none" fill="#2ccc74" fill-rule="evenodd"></path><path id="path1" d="M289.081 67.453 C 288.722 67.811,289.568 69.267,289.986 69.009 C 290.176 68.891,290.423 69.021,290.534 69.298 C 290.686 69.674,290.745 69.678,290.768 69.314 C 290.786 69.047,290.435 68.633,289.989 68.394 C 289.543 68.155,289.283 67.789,289.412 67.580 C 289.678 67.151,289.464 67.069,289.081 67.453 M102.114 83.400 C 102.117 84.500,102.195 84.903,102.287 84.295 C 102.379 83.686,102.377 82.786,102.282 82.295 C 102.187 81.803,102.111 82.300,102.114 83.400 M231.364 116.600 C 231.363 120.340,231.423 121.924,231.497 120.120 C 231.571 118.315,231.572 115.255,231.498 113.320 C 231.425 111.384,231.364 112.860,231.364 116.600 M102.120 149.600 C 102.120 150.810,102.195 151.305,102.287 150.700 C 102.378 150.095,102.378 149.105,102.287 148.500 C 102.195 147.895,102.120 148.390,102.120 149.600 M131.293 212.400 C 131.293 213.170,131.375 213.485,131.476 213.100 C 131.576 212.715,131.576 212.085,131.476 211.700 C 131.375 211.315,131.293 211.630,131.293 212.400 M134.720 214.031 C 134.599 214.346,134.748 214.835,135.050 215.118 C 135.651 215.679,135.708 215.418,135.242 214.229 C 135.008 213.634,134.890 213.589,134.720 214.031 M126.246 256.625 C 126.105 256.991,125.797 257.130,125.503 256.961 C 125.226 256.802,125.140 256.826,125.312 257.014 C 125.795 257.545,126.786 257.580,126.688 257.063 C 126.639 256.808,126.838 256.649,127.130 256.710 C 127.421 256.770,127.545 256.635,127.406 256.410 C 127.037 255.812,126.521 255.908,126.246 256.625 M102.354 286.656 C 102.055 287.016,101.867 287.746,101.936 288.277 C 102.006 288.808,101.860 289.487,101.612 289.786 C 101.273 290.193,101.291 290.403,101.681 290.629 C 101.966 290.793,102.074 290.788,101.919 290.617 C 101.765 290.445,101.900 290.043,102.220 289.723 C 102.579 289.364,102.724 288.702,102.599 287.992 C 102.453 287.168,102.595 286.726,103.098 286.433 C 103.484 286.208,103.597 286.019,103.349 286.012 C 103.101 286.005,102.653 286.295,102.354 286.656 M60.493 287.600 C 60.493 288.370,60.575 288.685,60.676 288.300 C 60.776 287.915,60.776 287.285,60.676 286.900 C 60.575 286.515,60.493 286.830,60.493 287.600 M302.114 304.200 C 302.117 305.300,302.195 305.703,302.287 305.095 C 302.379 304.486,302.377 303.586,302.282 303.095 C 302.187 302.603,302.111 303.100,302.114 304.200 M93.429 310.229 C 93.281 310.815,93.251 311.384,93.361 311.494 C 93.471 311.604,93.681 311.215,93.829 310.629 C 93.976 310.042,94.006 309.473,93.896 309.363 C 93.786 309.253,93.576 309.642,93.429 310.229 M310.493 327.200 C 310.493 327.970,310.575 328.285,310.676 327.900 C 310.776 327.515,310.776 326.885,310.676 326.500 C 310.575 326.115,310.493 326.430,310.493 327.200 M84.629 331.106 C 84.865 331.268,85.175 331.715,85.317 332.100 C 85.459 332.485,85.806 332.797,86.087 332.794 C 86.429 332.790,86.457 332.690,86.171 332.494 C 85.935 332.332,85.625 331.885,85.483 331.500 C 85.341 331.115,84.994 330.803,84.713 330.806 C 84.371 330.810,84.343 330.910,84.629 331.106 M144.500 331.500 C 175.025 331.557,224.975 331.557,255.500 331.500 C 286.025 331.443,261.050 331.397,200.000 331.397 C 138.950 331.397,113.975 331.443,144.500 331.500 M38.830 347.364 C 38.074 348.275,39.857 348.714,40.688 347.822 C 40.860 347.638,40.474 347.614,39.830 347.769 C 38.801 348.017,38.722 347.975,39.179 347.425 C 39.464 347.081,39.608 346.800,39.498 346.800 C 39.388 346.800,39.087 347.054,38.830 347.364 M38.598 349.204 C 38.463 349.422,38.554 349.600,38.800 349.600 C 39.046 349.600,39.136 349.780,39.000 350.000 C 38.864 350.220,38.933 350.400,39.153 350.400 C 39.827 350.400,39.945 349.827,39.379 349.304 C 39.041 348.992,38.752 348.955,38.598 349.204 M31.301 361.000 C 31.305 361.880,31.387 362.193,31.483 361.695 C 31.579 361.198,31.575 360.478,31.475 360.095 C 31.375 359.713,31.296 360.120,31.301 361.000 " stroke="none" fill="#30cc74" fill-rule="evenodd"></path><path id="path2" d="M289.081 67.453 C 288.722 67.811,289.568 69.267,289.986 69.009 C 290.176 68.891,290.423 69.021,290.534 69.298 C 290.686 69.674,290.745 69.678,290.768 69.314 C 290.786 69.047,290.435 68.633,289.989 68.394 C 289.543 68.155,289.283 67.789,289.412 67.580 C 289.678 67.151,289.464 67.069,289.081 67.453 M102.114 83.400 C 102.117 84.500,102.195 84.903,102.287 84.295 C 102.379 83.686,102.377 82.786,102.282 82.295 C 102.187 81.803,102.111 82.300,102.114 83.400 M231.364 116.600 C 231.363 120.340,231.423 121.924,231.497 120.120 C 231.571 118.315,231.572 115.255,231.498 113.320 C 231.425 111.384,231.364 112.860,231.364 116.600 M102.120 149.600 C 102.120 150.810,102.195 151.305,102.287 150.700 C 102.378 150.095,102.378 149.105,102.287 148.500 C 102.195 147.895,102.120 148.390,102.120 149.600 M131.293 212.400 C 131.293 213.170,131.375 213.485,131.476 213.100 C 131.576 212.715,131.576 212.085,131.476 211.700 C 131.375 211.315,131.293 211.630,131.293 212.400 M134.720 214.031 C 134.599 214.346,134.748 214.835,135.050 215.118 C 135.651 215.679,135.708 215.418,135.242 214.229 C 135.008 213.634,134.890 213.589,134.720 214.031 M126.246 256.625 C 126.105 256.991,125.797 257.130,125.503 256.961 C 125.226 256.802,125.140 256.826,125.312 257.014 C 125.795 257.545,126.786 257.580,126.688 257.063 C 126.639 256.808,126.838 256.649,127.130 256.710 C 127.421 256.770,127.545 256.635,127.406 256.410 C 127.037 255.812,126.521 255.908,126.246 256.625 M102.354 286.656 C 102.055 287.016,101.867 287.746,101.936 288.277 C 102.006 288.808,101.860 289.487,101.612 289.786 C 101.273 290.193,101.291 290.403,101.681 290.629 C 101.966 290.793,102.074 290.788,101.919 290.617 C 101.765 290.445,101.900 290.043,102.220 289.723 C 102.579 289.364,102.724 288.702,102.599 287.992 C 102.453 287.168,102.595 286.726,103.098 286.433 C 103.484 286.208,103.597 286.019,103.349 286.012 C 103.101 286.005,102.653 286.295,102.354 286.656 M60.493 287.600 C 60.493 288.370,60.575 288.685,60.676 288.300 C 60.776 287.915,60.776 287.285,60.676 286.900 C 60.575 286.515,60.493 286.830,60.493 287.600 M302.114 304.200 C 302.117 305.300,302.195 305.703,302.287 305.095 C 302.379 304.486,302.377 303.586,302.282 303.095 C 302.187 302.603,302.111 303.100,302.114 304.200 M93.429 310.229 C 93.281 310.815,93.251 311.384,93.361 311.494 C 93.471 311.604,93.681 311.215,93.829 310.629 C 93.976 310.042,94.006 309.473,93.896 309.363 C 93.786 309.253,93.576 309.642,93.429 310.229 M310.493 327.200 C 310.493 327.970,310.575 328.285,310.676 327.900 C 310.776 327.515,310.776 326.885,310.676 326.500 C 310.575 326.115,310.493 326.430,310.493 327.200 M84.629 331.106 C 84.865 331.268,85.175 331.715,85.317 332.100 C 85.459 332.485,85.806 332.797,86.087 332.794 C 86.429 332.790,86.457 332.690,86.171 332.494 C 85.935 332.332,85.625 331.885,85.483 331.500 C 85.341 331.115,84.994 330.803,84.713 330.806 C 84.371 330.810,84.343 330.910,84.629 331.106 M144.500 331.500 C 175.025 331.557,224.975 331.557,255.500 331.500 C 286.025 331.443,261.050 331.397,200.000 331.397 C 138.950 331.397,113.975 331.443,144.500 331.500 M38.830 347.364 C 38.074 348.275,39.857 348.714,40.688 347.822 C 40.860 347.638,40.474 347.614,39.830 347.769 C 38.801 348.017,38.722 347.975,39.179 347.425 C 39.464 347.081,39.608 346.800,39.498 346.800 C 39.388 346.800,39.087 347.054,38.830 347.364 M38.598 349.204 C 38.463 349.422,38.554 349.600,38.800 349.600 C 39.046 349.600,39.136 349.780,39.000 350.000 C 38.864 350.220,38.933 350.400,39.153 350.400 C 39.827 350.400,39.945 349.827,39.379 349.304 C 39.041 348.992,38.752 348.955,38.598 349.204 M31.301 361.000 C 31.305 361.880,31.387 362.193,31.483 361.695 C 31.579 361.198,31.575 360.478,31.475 360.095 C 31.375 359.713,31.296 360.120,31.301 361.000 " stroke="none" fill="#30cc74" fill-rule="evenodd"></path><path id="path3" d="M289.081 67.453 C 288.722 67.811,289.568 69.267,289.986 69.009 C 290.176 68.891,290.423 69.021,290.534 69.298 C 290.686 69.674,290.745 69.678,290.768 69.314 C 290.786 69.047,290.435 68.633,289.989 68.394 C 289.543 68.155,289.283 67.789,289.412 67.580 C 289.678 67.151,289.464 67.069,289.081 67.453 M102.114 83.400 C 102.117 84.500,102.195 84.903,102.287 84.295 C 102.379 83.686,102.377 82.786,102.282 82.295 C 102.187 81.803,102.111 82.300,102.114 83.400 M231.364 116.600 C 231.363 120.340,231.423 121.924,231.497 120.120 C 231.571 118.315,231.572 115.255,231.498 113.320 C 231.425 111.384,231.364 112.860,231.364 116.600 M102.120 149.600 C 102.120 150.810,102.195 151.305,102.287 150.700 C 102.378 150.095,102.378 149.105,102.287 148.500 C 102.195 147.895,102.120 148.390,102.120 149.600 M131.293 212.400 C 131.293 213.170,131.375 213.485,131.476 213.100 C 131.576 212.715,131.576 212.085,131.476 211.700 C 131.375 211.315,131.293 211.630,131.293 212.400 M134.720 214.031 C 134.599 214.346,134.748 214.835,135.050 215.118 C 135.651 215.679,135.708 215.418,135.242 214.229 C 135.008 213.634,134.890 213.589,134.720 214.031 M126.246 256.625 C 126.105 256.991,125.797 257.130,125.503 256.961 C 125.226 256.802,125.140 256.826,125.312 257.014 C 125.795 257.545,126.786 257.580,126.688 257.063 C 126.639 256.808,126.838 256.649,127.130 256.710 C 127.421 256.770,127.545 256.635,127.406 256.410 C 127.037 255.812,126.521 255.908,126.246 256.625 M102.354 286.656 C 102.055 287.016,101.867 287.746,101.936 288.277 C 102.006 288.808,101.860 289.487,101.612 289.786 C 101.273 290.193,101.291 290.403,101.681 290.629 C 101.966 290.793,102.074 290.788,101.919 290.617 C 101.765 290.445,101.900 290.043,102.220 289.723 C 102.579 289.364,102.724 288.702,102.599 287.992 C 102.453 287.168,102.595 286.726,103.098 286.433 C 103.484 286.208,103.597 286.019,103.349 286.012 C 103.101 286.005,102.653 286.295,102.354 286.656 M60.493 287.600 C 60.493 288.370,60.575 288.685,60.676 288.300 C 60.776 287.915,60.776 287.285,60.676 286.900 C 60.575 286.515,60.493 286.830,60.493 287.600 M302.114 304.200 C 302.117 305.300,302.195 305.703,302.287 305.095 C 302.379 304.486,302.377 303.586,302.282 303.095 C 302.187 302.603,302.111 303.100,302.114 304.200 M93.429 310.229 C 93.281 310.815,93.251 311.384,93.361 311.494 C 93.471 311.604,93.681 311.215,93.829 310.629 C 93.976 310.042,94.006 309.473,93.896 309.363 C 93.786 309.253,93.576 309.642,93.429 310.229 M310.493 327.200 C 310.493 327.970,310.575 328.285,310.676 327.900 C 310.776 327.515,310.776 326.885,310.676 326.500 C 310.575 326.115,310.493 326.430,310.493 327.200 M84.629 331.106 C 84.865 331.268,85.175 331.715,85.317 332.100 C 85.459 332.485,85.806 332.797,86.087 332.794 C 86.429 332.790,86.457 332.690,86.171 332.494 C 85.935 332.332,85.625 331.885,85.483 331.500 C 85.341 331.115,84.994 330.803,84.713 330.806 C 84.371 330.810,84.343 330.910,84.629 331.106 M144.500 331.500 C 175.025 331.557,224.975 331.557,255.500 331.500 C 286.025 331.443,261.050 331.397,200.000 331.397 C 138.950 331.397,113.975 331.443,144.500 331.500 M38.830 347.364 C 38.074 348.275,39.857 348.714,40.688 347.822 C 40.860 347.638,40.474 347.614,39.830 347.769 C 38.801 348.017,38.722 347.975,39.179 347.425 C 39.464 347.081,39.608 346.800,39.498 346.800 C 39.388 346.800,39.087 347.054,38.830 347.364 M38.598 349.204 C 38.463 349.422,38.554 349.600,38.800 349.600 C 39.046 349.600,39.136 349.780,39.000 350.000 C 38.864 350.220,38.933 350.400,39.153 350.400 C 39.827 350.400,39.945 349.827,39.379 349.304 C 39.041 348.992,38.752 348.955,38.598 349.204 M31.301 361.000 C 31.305 361.880,31.387 362.193,31.483 361.695 C 31.579 361.198,31.575 360.478,31.475 360.095 C 31.375 359.713,31.296 360.120,31.301 361.000 " stroke="none" fill="#30cc74" fill-rule="evenodd"></path><path id="path4" d="M289.081 67.453 C 288.722 67.811,289.568 69.267,289.986 69.009 C 290.176 68.891,290.423 69.021,290.534 69.298 C 290.686 69.674,290.745 69.678,290.768 69.314 C 290.786 69.047,290.435 68.633,289.989 68.394 C 289.543 68.155,289.283 67.789,289.412 67.580 C 289.678 67.151,289.464 67.069,289.081 67.453 M102.114 83.400 C 102.117 84.500,102.195 84.903,102.287 84.295 C 102.379 83.686,102.377 82.786,102.282 82.295 C 102.187 81.803,102.111 82.300,102.114 83.400 M231.364 116.600 C 231.363 120.340,231.423 121.924,231.497 120.120 C 231.571 118.315,231.572 115.255,231.498 113.320 C 231.425 111.384,231.364 112.860,231.364 116.600 M102.120 149.600 C 102.120 150.810,102.195 151.305,102.287 150.700 C 102.378 150.095,102.378 149.105,102.287 148.500 C 102.195 147.895,102.120 148.390,102.120 149.600 M131.293 212.400 C 131.293 213.170,131.375 213.485,131.476 213.100 C 131.576 212.715,131.576 212.085,131.476 211.700 C 131.375 211.315,131.293 211.630,131.293 212.400 M134.720 214.031 C 134.599 214.346,134.748 214.835,135.050 215.118 C 135.651 215.679,135.708 215.418,135.242 214.229 C 135.008 213.634,134.890 213.589,134.720 214.031 M126.246 256.625 C 126.105 256.991,125.797 257.130,125.503 256.961 C 125.226 256.802,125.140 256.826,125.312 257.014 C 125.795 257.545,126.786 257.580,126.688 257.063 C 126.639 256.808,126.838 256.649,127.130 256.710 C 127.421 256.770,127.545 256.635,127.406 256.410 C 127.037 255.812,126.521 255.908,126.246 256.625 M102.354 286.656 C 102.055 287.016,101.867 287.746,101.936 288.277 C 102.006 288.808,101.860 289.487,101.612 289.786 C 101.273 290.193,101.291 290.403,101.681 290.629 C 101.966 290.793,102.074 290.788,101.919 290.617 C 101.765 290.445,101.900 290.043,102.220 289.723 C 102.579 289.364,102.724 288.702,102.599 287.992 C 102.453 287.168,102.595 286.726,103.098 286.433 C 103.484 286.208,103.597 286.019,103.349 286.012 C 103.101 286.005,102.653 286.295,102.354 286.656 M60.493 287.600 C 60.493 288.370,60.575 288.685,60.676 288.300 C 60.776 287.915,60.776 287.285,60.676 286.900 C 60.575 286.515,60.493 286.830,60.493 287.600 M302.114 304.200 C 302.117 305.300,302.195 305.703,302.287 305.095 C 302.379 304.486,302.377 303.586,302.282 303.095 C 302.187 302.603,302.111 303.100,302.114 304.200 M93.429 310.229 C 93.281 310.815,93.251 311.384,93.361 311.494 C 93.471 311.604,93.681 311.215,93.829 310.629 C 93.976 310.042,94.006 309.473,93.896 309.363 C 93.786 309.253,93.576 309.642,93.429 310.229 M310.493 327.200 C 310.493 327.970,310.575 328.285,310.676 327.900 C 310.776 327.515,310.776 326.885,310.676 326.500 C 310.575 326.115,310.493 326.430,310.493 327.200 M84.629 331.106 C 84.865 331.268,85.175 331.715,85.317 332.100 C 85.459 332.485,85.806 332.797,86.087 332.794 C 86.429 332.790,86.457 332.690,86.171 332.494 C 85.935 332.332,85.625 331.885,85.483 331.500 C 85.341 331.115,84.994 330.803,84.713 330.806 C 84.371 330.810,84.343 330.910,84.629 331.106 M144.500 331.500 C 175.025 331.557,224.975 331.557,255.500 331.500 C 286.025 331.443,261.050 331.397,200.000 331.397 C 138.950 331.397,113.975 331.443,144.500 331.500 M38.830 347.364 C 38.074 348.275,39.857 348.714,40.688 347.822 C 40.860 347.638,40.474 347.614,39.830 347.769 C 38.801 348.017,38.722 347.975,39.179 347.425 C 39.464 347.081,39.608 346.800,39.498 346.800 C 39.388 346.800,39.087 347.054,38.830 347.364 M38.598 349.204 C 38.463 349.422,38.554 349.600,38.800 349.600 C 39.046 349.600,39.136 349.780,39.000 350.000 C 38.864 350.220,38.933 350.400,39.153 350.400 C 39.827 350.400,39.945 349.827,39.379 349.304 C 39.041 348.992,38.752 348.955,38.598 349.204 M31.301 361.000 C 31.305 361.880,31.387 362.193,31.483 361.695 C 31.579 361.198,31.575 360.478,31.475 360.095 C 31.375 359.713,31.296 360.120,31.301 361.000 " stroke="none" fill="#30cc74" fill-rule="evenodd"></path></g></svg>